# xmcd
#
# Track frame offsets:
#	150
#	16548
#	32427
#	52034
#	72995
#	95488
#	119459
#	142122
#	163053
#	180454
#	195336
#	230834
#
# Disc length: 3335 seconds
#
# Revision: 0
# Processed by: cddbd v1.5.2PL0 Copyright (c) Steve Scherf et al.
# Submitted via: audiograbber 1.83.01
#
DISCID=9f0d050c
DTITLE=Bachman and Turner - Bachman and Turner
DYEAR=2010
DGENRE=Rock
TTITLE0=Rollin' Along
TTITLE1=That's What It Is
TTITLE2=Moonlight Rider
TTITLE3=Find Some Love
TTITLE4=Slave to the Rhythm
TTITLE5=Waiting Game
TTITLE6=I've seen the Light
TTITLE7=Can't Go Back to Memphis
TTITLE8=Rock and Roll is the Only Way Out
TTITLE9=Neutral Zone
TTITLE10=Traffic Jam
TTITLE11=Repo Man
EXTD=
EXTT0=
EXTT1=
EXTT2=
EXTT3=
EXTT4=
EXTT5=
EXTT6=
EXTT7=
EXTT8=
EXTT9=
EXTT10=
EXTT11=
PLAYORDER=
